<?xml version="1.0" standalone="no"?>
<!DOCTYPE svg PUBLIC "-//W3C//DTD SVG 20010904//EN"
 "http://www.w3.org/TR/2001/REC-SVG-20010904/DTD/svg10.dtd">
<svg version="1.0" xmlns="http://www.w3.org/2000/svg"
 width="3680.000000pt" height="1680.000000pt" viewBox="0 0 3680.000000 3680.000000"
 preserveAspectRatio="xMidYMid meet">
<g transform="translate(0.000000,   4200.000000) scale(0.400000,-0.400000)"
fill="#ffffff" stroke="none">
<path d="M7380 10603 c-517 -53 -964 -277 -1262 -633 -89 -106 -179 -237 -230
-335 -18 -36 -38 -65 -45 -65 -7 0 -17 19 -24 42 -75 279 -441 492 -969 563
-63 9 -200 18 -305 22 -644 20 -1268 -152 -1614 -446 -70 -59 -163 -177 -202
-253 -63 -125 -85 -291 -58 -445 6 -35 9 -67 5 -70 -3 -3 -54 17 -113 45 -203
96 -353 127 -603 126 -140 -1 -196 -5 -280 -23 -540 -115 -993 -458 -1177
-894 -167 -395 -96 -817 204 -1214 40 -53 70 -100 67 -104 -2 -4 -37 -24 -77
-45 -159 -81 -320 -214 -422 -350 -357 -474 -301 -1149 129 -1551 219 -204
503 -320 861 -349 97 -8 93 0 69 -117 -22 -107 -15 -292 16 -396 50 -173 140
-320 280 -455 259 -250 609 -378 1066 -393 345 -11 692 42 1091 168 72 23 138
39 147 36 10 -4 16 -18 16 -37 0 -77 86 -261 183 -395 80 -108 271 -295 387
-378 107 -76 298 -174 410 -210 146 -48 235 -61 400 -61 227 0 364 33 575 139
270 136 541 390 778 728 43 62 83 113 87 115 5 2 27 -35 49 -83 54 -116 117
-208 208 -305 380 -404 1058 -662 1629 -619 193 14 345 52 501 124 238 110
454 332 572 586 42 91 104 277 116 347 4 24 14 46 21 49 8 3 45 -8 82 -25 171
-78 371 -113 642 -113 493 0 928 152 1198 419 331 327 409 812 221 1379 -17
51 -27 98 -24 104 4 6 24 18 43 26 93 39 228 152 336 282 248 297 415 707 433
1062 5 105 -18 243 -62 372 -86 250 -306 460 -610 582 -146 59 -466 135 -568
135 -15 0 -30 6 -33 13 -3 8 17 57 44 110 60 116 107 241 135 362 30 131 30
355 -1 479 -27 106 -94 253 -156 340 -55 76 -192 209 -275 265 -147 100 -376
189 -586 227 -119 22 -460 30 -607 15 -225 -24 -475 -79 -711 -158 -78 -26
-142 -42 -146 -37 -5 5 -5 43 -1 84 27 268 -79 522 -309 742 -317 304 -817
482 -1341 476 -85 0 -171 -3 -190 -5z"/>
</g>
</svg>
